<?xml version="1.0" encoding="UTF-8"?>
<svg id="Layer_2" data-name="Layer 2" xmlns="http://www.w3.org/2000/svg" viewBox="0 0 188.16 206.77">
  <defs>
    <style>
      .cls-1 {
        fill: #fa6307;
      }

      .cls-2 {
        fill: #8b3e2a;
      }
    </style>
  </defs>
  <g id="Layer_1-2" data-name="Layer 1">
    <path class="cls-1" d="m47.69,124.4v-2.69l2.56-.9c2.73-.85,4.1-2.99,4.1-6.4.08-4.86.13-9.83.13-14.91v-34.88c0-4.95-.04-9.9-.13-14.85,0-3.5-1.32-5.67-3.97-6.53l-2.69-.77v-2.69h33.66c8.96,0,16.68,1.66,23.17,4.99,6.48,3.33,11.48,8.13,14.98,14.4,3.5,6.27,5.25,13.85,5.25,22.72s-1.9,16.73-5.7,23.04c-3.8,6.32-9.13,11.14-16,14.46-6.87,3.33-14.87,4.99-24,4.99h-31.36Zm25.22-3.71h6.53c6.06,0,10.99-1.19,14.78-3.58,3.8-2.39,6.59-6.42,8.38-12.1,1.79-5.67,2.69-13.33,2.69-22.98s-.9-17.28-2.69-22.91c-1.79-5.63-4.54-9.64-8.26-12.03-3.71-2.39-8.51-3.58-14.4-3.58h-7.04c-.09,5.89-.13,11.84-.13,17.86v41.22c0,6.1.04,12.14.13,18.11Z"/>
    <path class="cls-2" d="m188.16,190.92l-.15-.53c-1.08-3.87-3.41-6.85-5.51-9.34-5.3-6.28-10.56-12.59-15.82-18.9-3.92-4.7-7.84-9.4-11.78-14.09-3.43-4.09-7.81-5.81-12.79-4.99-.88-1.14-1.81-2.24-2.75-3.34.1-.11.2-.21.3-.32,1.62-1.71,3.29-3.48,4.77-5.43l.47-.62c2.76-3.63,5.61-7.39,7.82-11.54,2.61-4.92,4.58-10.1,6.54-15.42,1.1-2.98,1.69-6.06,2.27-9.04l.15-.79c.52-2.68.92-5.57,1.17-8.57.63-7.31.13-14.92-1.47-22.63-1.72-8.28-4.56-15.99-8.43-22.92-3.41-6.1-6.72-10.81-10.4-14.82-8.75-9.53-18.87-16.6-30.1-21.02-3.05-1.2-6.21-2.08-9.26-2.92-1.49-.41-2.98-.83-4.45-1.28-.39-.12-.76-.3-1.13-.47-.26-.12-.51-.24-.77-.35l-.44-.19-15.57-1.4-.55.16c-.28.08-.57.19-.85.29-.11.04-.22.09-.33.13-5.57-.18-10.9.85-16.33,2.03-5.95,1.29-11.9,3.4-17.68,6.27-8.23,4.09-15.55,9.35-21.75,15.63-5.2,5.27-9.78,11.41-13.58,18.24-4.46,8-7.39,16.39-8.71,24.94C.05,74.05.03,80.54,0,86.82c-.02,6.44,1.21,13.15,3.89,21.11,4.26,12.65,11.53,23.97,21.61,33.63,7.35,7.04,15.77,12.49,25.05,16.2,9.18,3.67,18.03,5.59,27.07,5.87,7.69.24,14.43-.25,20.62-1.51,9.1-1.84,17.79-5.31,25.82-10.31,1.27-.79,2.52-1.61,3.78-2.45.88,1.05,1.72,2.07,2.54,3.12-1.44,5.13-.45,9.78,2.94,13.83,6.09,7.26,12.17,14.54,18.25,21.82l11.61,13.9c.8.96,1.54,1.66,2.33,2.2,2.09,1.43,4.47,2.28,6.92,2.5,1.61.15,3.25.02,4.84-.39,3.83-.99,6.98-3.45,8.93-6.97.09-.06.18-.13.27-.19M89.78,20.41c32.97,4.37,56.5,33.87,53.55,67.15v.02c-1.37,16.71-9.7,32.4-22.85,43.06-13.26,10.74-30.16,15.43-47.58,13.19-36.97-4.73-56.49-39.37-53.36-68.74,1.87-17.56,10.04-31.9,24.3-42.61,12.84-9.64,27.29-13.8,43.02-12.39.97.09,1.94.2,2.92.33Z"/>
  </g>
</svg>