<?xml version="1.0" encoding="UTF-8"?>
<svg id="Layer_2" data-name="Layer 2" xmlns="http://www.w3.org/2000/svg" viewBox="0 0 713.85 139.95">
  <defs>
    <style>
      .cls-1 {
        fill: #fa6307;
      }

      .cls-2 {
        fill: #8b3e2a;
      }
    </style>
  </defs>
  <g id="Layer_1-2" data-name="Layer 1">
    <g>
      <path class="cls-1" d="m0,105.3v-3.15l3-1.05c3.2-1,4.8-3.5,4.8-7.5.1-5.7.15-11.52.15-17.47v-40.88c0-5.8-.05-11.6-.15-17.4,0-4.1-1.55-6.65-4.65-7.65l-3.15-.9v-3.15h39.45c10.5,0,19.55,1.95,27.15,5.85,7.6,3.9,13.45,9.52,17.55,16.88,4.1,7.35,6.15,16.23,6.15,26.62s-2.23,19.6-6.67,27c-4.45,7.4-10.7,13.05-18.75,16.95-8.05,3.9-17.43,5.85-28.12,5.85H0Zm29.55-4.35h7.65c7.1,0,12.87-1.4,17.33-4.2,4.45-2.8,7.73-7.52,9.82-14.18,2.1-6.65,3.15-15.62,3.15-26.92s-1.05-20.25-3.15-26.85c-2.1-6.6-5.32-11.3-9.67-14.1-4.35-2.8-9.98-4.2-16.88-4.2h-8.25c-.1,6.9-.15,13.88-.15,20.92v48.3c0,7.15.05,14.23.15,21.23Z"/>
      <path class="cls-1" d="m96.75,105.3v-2.85l2.25-.6c2-.6,3.35-1.5,4.05-2.7.7-1.2,1.1-2.8,1.2-4.8v-36.22c0-2.65-.05-5.37-.15-8.18,0-2-.38-3.57-1.12-4.73-.75-1.15-2.13-1.92-4.12-2.32l-2.1-.45v-2.7l26.25-8.7,1.8,1.65-.45,21.3v40.5c0,2,.38,3.6,1.12,4.8s2.07,2.1,3.98,2.7l1.65.45v2.85h-34.35Zm17.25-82.5c-3.3,0-6.1-1.05-8.4-3.15-2.3-2.1-3.45-4.75-3.45-7.95s1.15-5.97,3.45-8.02c2.3-2.05,5.1-3.08,8.4-3.08s6.1,1.03,8.4,3.08c2.3,2.05,3.45,4.73,3.45,8.02s-1.15,5.85-3.45,7.95c-2.3,2.1-5.1,3.15-8.4,3.15Z"/>
      <path class="cls-1" d="m163.65,107.4c-4.8,0-9.13-.52-12.98-1.58-3.85-1.05-7.53-2.52-11.02-4.42v-17.7h4.05l4.5,8.55c1.9,3.7,4.07,6.45,6.52,8.25,2.45,1.8,5.57,2.7,9.38,2.7,4.7,0,8.45-1.02,11.25-3.07,2.8-2.05,4.2-4.82,4.2-8.33,0-3.2-1.05-5.8-3.15-7.8-2.1-2-5.85-3.85-11.25-5.55l-6.6-2.1c-5.9-1.8-10.58-4.52-14.02-8.17-3.45-3.65-5.18-8.22-5.18-13.73,0-4.3,1.15-8.22,3.45-11.77,2.3-3.55,5.65-6.38,10.05-8.48,4.4-2.1,9.75-3.15,16.05-3.15,4.1,0,7.88.48,11.32,1.42,3.45.95,6.83,2.28,10.12,3.98l-.9,16.05h-3.9l-4.65-8.55c-1.6-3.2-3.23-5.42-4.88-6.67-1.65-1.25-4.18-1.88-7.58-1.88-3.6,0-6.78.93-9.52,2.77-2.75,1.85-4.12,4.42-4.12,7.73,0,3.1,1.15,5.62,3.45,7.57,2.3,1.95,6,3.78,11.1,5.48l6.45,1.95c7.3,2.3,12.5,5.35,15.6,9.15,3.1,3.8,4.65,8.35,4.65,13.65,0,7.1-2.83,12.83-8.48,17.18-5.65,4.35-13.63,6.52-23.92,6.52Z"/>
      <path class="cls-1" d="m201,105.3v-3l1.95-.6c3.6-1.1,5.4-3.6,5.4-7.5V16.95c0-2.1-.35-3.67-1.05-4.73-.7-1.05-2.05-1.82-4.05-2.32l-2.25-.6v-2.85l25.35-6.45,2.4,1.35-.6,21.15v19.2c3.5-2.9,7.32-5.4,11.48-7.5,4.15-2.1,8.62-3.15,13.42-3.15,6.6,0,11.77,1.85,15.52,5.55,3.75,3.7,5.62,9.4,5.62,17.1v40.65c0,2,.4,3.6,1.2,4.8.8,1.2,2.2,2.1,4.2,2.7l1.35.45v3h-34.2v-3l1.8-.6c3.6-1,5.4-3.5,5.4-7.5v-43.35c0-4.1-.7-6.95-2.1-8.55-1.4-1.6-3.85-2.4-7.35-2.4-2.4,0-4.93.45-7.58,1.35-2.65.9-5.43,2.4-8.33,4.5v48.75c0,2,.4,3.6,1.2,4.8.8,1.2,2.15,2.05,4.05,2.55l1.35.45v3h-34.2Z"/>
      <path class="cls-2" d="m316.35,107.4c-7.3,0-13.27-2.45-17.92-7.35-4.65-4.9-6.98-11.85-6.98-20.85,0-6.4,1.12-12.5,3.38-18.3,2.25-5.8,5.33-10.92,9.23-15.38,3.9-4.45,8.4-7.97,13.5-10.58,5.1-2.6,10.5-3.9,16.2-3.9,3.5,0,6.72.55,9.67,1.65,2.95,1.1,5.33,2.6,7.12,4.5,1.8,1.9,2.65,4.15,2.55,6.75-.1,2.6-.95,4.65-2.55,6.15-1.6,1.5-3.6,2.25-6,2.25-2.7,0-4.88-.75-6.52-2.25s-3.03-3.35-4.12-5.55l-1.05-2.4c-1.3-2.9-2.55-4.55-3.75-4.95-1.2-.4-2.95.35-5.25,2.25-2.6,2.3-5.08,5.33-7.42,9.08-2.35,3.75-4.23,7.93-5.62,12.52-1.4,4.6-2.1,9.35-2.1,14.25,0,7.1,1.6,12.35,4.8,15.75,3.2,3.4,7.45,5.1,12.75,5.1,3.6,0,7.1-1.12,10.5-3.38,3.4-2.25,6.55-5.27,9.45-9.08l2.4,1.95c-2,3.8-4.65,7.38-7.95,10.73-3.3,3.35-7,6.03-11.1,8.02-4.1,2-8.5,3-13.2,3Z"/>
      <path class="cls-2" d="m453.6,106.5l-1.35-1.05c-.9-10.9-1.83-21-2.77-30.3-.95-9.3-1.88-18.35-2.77-27.15-.3-2.5-.78-4.07-1.42-4.73-.65-.65-1.48-.98-2.48-.98-1.8,0-4.2,1.75-7.2,5.25l-2.1-2.4c6.5-9.4,13-14.1,19.5-14.1,7,0,10.85,4.55,11.55,13.65.7,7.1,1.35,14.73,1.95,22.88.6,8.15,1.2,16.73,1.8,25.73,3.8-4.6,7.35-9.1,10.65-13.5,3.3-4.4,6.6-9.2,9.9-14.4,1.5-2.5,2.35-4.88,2.55-7.12.2-2.25-.15-4.73-1.05-7.43l-2.25-5.85c-1.3-3.8-1.08-7.12.68-9.98,1.75-2.85,4.32-4.27,7.72-4.27s5.65.95,7.05,2.85c1.4,1.9,2.1,4.3,2.1,7.2,0,1.9-.45,4.2-1.35,6.9-.9,2.7-2.8,6.5-5.7,11.4-4,7-9.1,14.58-15.3,22.73-6.2,8.15-13.15,16.08-20.85,23.77l-8.85.9Z"/>
      <path class="cls-2" d="m533.55,107.4c-7.4,0-13.43-2.4-18.08-7.2-4.65-4.8-6.98-11.75-6.98-20.85,0-6.3,1.1-12.35,3.3-18.15,2.2-5.8,5.22-10.97,9.07-15.52,3.85-4.55,8.37-8.12,13.58-10.73,5.2-2.6,10.8-3.9,16.8-3.9s10.92,1.4,14.18,4.2c3.25,2.8,4.88,6.55,4.88,11.25,0,5.7-3.78,11.32-11.33,16.88-7.55,5.55-18.48,9.88-32.77,12.97.3,6.5,1.85,11.25,4.65,14.25,2.8,3,6.65,4.5,11.55,4.5,4.4,0,8.35-1.15,11.85-3.45,3.5-2.3,6.45-5,8.85-8.1l2.25,1.65c-2,3.8-4.58,7.4-7.73,10.8-3.15,3.4-6.73,6.15-10.73,8.25-4,2.1-8.45,3.15-13.35,3.15Zm16.2-71.25c-2.3,0-4.75.98-7.35,2.92-2.6,1.95-5.08,4.6-7.42,7.95-2.35,3.35-4.33,7.2-5.92,11.55-1.6,4.35-2.55,8.98-2.85,13.88,11.2-3.3,19.07-7.4,23.62-12.3,4.55-4.9,6.82-10.1,6.82-15.6,0-2.9-.65-5.02-1.95-6.38-1.3-1.35-2.95-2.02-4.95-2.02Z"/>
      <path class="cls-2" d="m575.25,106.5l-1.5-1.35,11.25-54.3c.5-2.4.35-4.27-.45-5.62-.8-1.35-2.2-2.37-4.2-3.07l-2.1-.75.45-2.55,24.9-7.95,1.8,1.65-4.05,23.55c2.2-4.6,4.7-8.8,7.5-12.6,2.8-3.8,5.72-6.83,8.77-9.08,3.05-2.25,6.08-3.38,9.08-3.38s5.42.8,7.27,2.4c1.85,1.6,2.77,3.7,2.77,6.3,0,2.8-.8,5.05-2.4,6.75-1.6,1.7-3.75,2.55-6.45,2.55-4.2,0-8.1-2.1-11.7-6.3-3.6,2.9-6.7,6.48-9.3,10.72-2.6,4.25-5.05,8.83-7.35,13.73l-1.2,6.15c-1,5.3-2.02,10.6-3.08,15.9-1.05,5.3-2.08,10.65-3.07,16.05l-16.95,1.2Z"/>
      <path class="cls-2" d="m634.95,139.95c-3.4,0-6.27-.9-8.62-2.7-2.35-1.8-3.52-4.25-3.52-7.35,0-2.6.9-4.73,2.7-6.38,1.8-1.65,4.05-2.48,6.75-2.48,1.5,0,2.95.25,4.35.75,1.4.5,2.85,1.35,4.35,2.55,2,1.7,3.95,2.75,5.85,3.15,1.9.4,3.9-.2,6-1.8,1.4-1.1,2.75-2.25,4.05-3.45,1.3-1.2,2.65-2.5,4.05-3.9.6-.6,1.2-1.25,1.8-1.95-1.3-10.3-2.68-20.15-4.12-29.55-1.45-9.4-2.98-19.35-4.57-29.85-.5-4-.98-6.95-1.43-8.85-.45-1.9-.98-3.15-1.57-3.75-.6-.6-1.3-.9-2.1-.9-1,0-2.1.45-3.3,1.35-1.2.9-2.6,2.5-4.2,4.8l-2.25-2.4c6.6-10.8,13.5-16.2,20.7-16.2,3.7,0,6.38,1.25,8.03,3.75,1.65,2.5,2.72,6.5,3.22,12,1,9.5,1.9,18.45,2.7,26.85.8,8.4,1.6,17.05,2.4,25.95,3.6-8.3,6.68-16.5,9.23-24.6,2.55-8.1,5.02-17.1,7.42-27,1.6-6.8,3.38-11.4,5.33-13.8s4.47-3.6,7.58-3.6c2.1,0,3.97.65,5.62,1.95,1.65,1.3,2.47,3.1,2.47,5.4s-.45,4.65-1.35,6.75c-.9,2.1-2.2,4.75-3.9,7.95-1.6,3-3.35,6.2-5.25,9.6-1.9,3.4-4.15,7.25-6.75,11.55-2.8,4.5-5.77,9.35-8.92,14.55-3.15,5.2-6.83,10.75-11.02,16.65-2.2,3.1-4.58,6.3-7.12,9.6-2.55,3.3-5.68,6.9-9.38,10.8-4.2,4.4-8.38,7.92-12.52,10.57-4.15,2.65-8.38,3.98-12.68,3.98Z"/>
    </g>
    <path class="cls-2" d="m446.36,121.4l-.07-.25c-.52-1.84-1.62-3.26-2.62-4.44-2.52-2.99-5.02-5.99-7.53-8.99-1.87-2.24-3.73-4.47-5.6-6.7-1.63-1.95-3.72-2.77-6.08-2.37-.42-.54-.86-1.07-1.31-1.59.05-.05.09-.1.14-.15.77-.81,1.56-1.65,2.27-2.58l.22-.3c1.31-1.73,2.67-3.51,3.72-5.49,1.24-2.34,2.18-4.8,3.11-7.33.52-1.42.8-2.88,1.08-4.3l.07-.38c.25-1.28.44-2.65.56-4.08.3-3.48.06-7.1-.7-10.76-.82-3.94-2.17-7.61-4.01-10.9-1.62-2.9-3.19-5.14-4.95-7.05-4.16-4.53-8.98-7.9-14.32-10-1.45-.57-2.95-.99-4.41-1.39-.71-.2-1.42-.39-2.12-.61-.18-.06-.36-.14-.54-.23-.12-.06-.24-.11-.37-.17l-.21-.09-7.41-.67-.26.08c-.14.04-.27.09-.41.14-.05.02-.11.04-.16.06-2.65-.09-5.19.41-7.77.97-2.83.61-5.66,1.62-8.41,2.98-3.92,1.95-7.4,4.45-10.35,7.44-2.48,2.51-4.65,5.43-6.46,8.68-2.12,3.81-3.52,7.8-4.14,11.87-.47,3.02-.48,6.11-.49,9.1-.01,3.06.58,6.25,1.85,10.04,2.03,6.02,5.49,11.4,10.28,16,3.5,3.35,7.5,5.94,11.91,7.71,4.37,1.75,8.58,2.66,12.88,2.79,3.66.11,6.87-.12,9.81-.72,4.33-.88,8.46-2.53,12.28-4.91.6-.38,1.2-.77,1.8-1.17.42.5.82.99,1.21,1.48-.69,2.44-.22,4.65,1.4,6.58,2.9,3.46,5.79,6.92,8.68,10.38l5.52,6.61c.38.46.73.79,1.11,1.04.99.68,2.13,1.08,3.29,1.19.77.07,1.55,0,2.3-.19,1.82-.47,3.32-1.64,4.25-3.31.04-.03.09-.06.13-.09m-45.99-85.03c15.69,2.08,26.88,16.11,25.47,31.94h0c-.65,7.96-4.61,15.42-10.87,20.49-6.31,5.11-14.35,7.34-22.64,6.27-17.59-2.25-26.87-18.73-25.38-32.7.89-8.35,4.78-15.18,11.56-20.27,6.11-4.59,12.98-6.57,20.46-5.89.46.04.92.09,1.39.15Z"/>
  </g>
</svg>